<svg xmlns="http://www.w3.org/2000/svg" viewBox="0 0 64 64"><rect width="64" height="64" rx="16" fill="#07101f"/><path d="M19 36c-7-7-7-17 1-24 8-7 21-6 28 2 6 7 5 16-2 21-7 6-16 7-24 2Z" fill="none" stroke="#4d95ff" stroke-width="6" stroke-linecap="round"/><path d="M45 29c7 7 7 17-1 24-8 7-21 6-28-2-6-7-5-16 2-21 7-6 16-7 24-2Z" fill="none" stroke="#e8eef8" stroke-width="6" stroke-linecap="round"/><path d="M24 41c5-8 11-12 20-12" fill="none" stroke="#b8cae0" stroke-width="4" stroke-linecap="round"/></svg>
